<mxfile host="app.diagrams.net" modified="2022-01-23T07:37:07.624Z" agent="5.0 (Windows)" etag="8PuTTaXb_baNRxFIMXxe" version="16.4.3" type="github">
  <diagram id="Z2XPl6DT5WQDu6Ui0edA" name="Page-1">
    <mxGraphModel dx="4124" dy="2280" grid="1" gridSize="10" guides="1" tooltips="1" connect="1" arrows="1" fold="1" page="1" pageScale="1" pageWidth="827" pageHeight="1169" math="0" shadow="0">
      <root>
        <mxCell id="0" />
        <mxCell id="1" parent="0" />
        <mxCell id="-I51igHoZUXPIICsRkif-1" value="Domain Model" style="shape=umlFrame;whiteSpace=wrap;html=1;width=150;height=40;" vertex="1" parent="1">
          <mxGeometry x="68" y="150" width="690" height="490" as="geometry" />
        </mxCell>
        <mxCell id="-I51igHoZUXPIICsRkif-2" value="User" style="rounded=0;whiteSpace=wrap;html=1;" vertex="1" parent="1">
          <mxGeometry x="332" y="200" width="120" height="60" as="geometry" />
        </mxCell>
        <mxCell id="-I51igHoZUXPIICsRkif-3" value="Tree" style="rounded=0;whiteSpace=wrap;html=1;" vertex="1" parent="1">
          <mxGeometry x="578" y="200" width="120" height="60" as="geometry" />
        </mxCell>
        <mxCell id="-I51igHoZUXPIICsRkif-4" value="" style="endArrow=none;html=1;rounded=0;exitX=1;exitY=0.5;exitDx=0;exitDy=0;entryX=0;entryY=0.5;entryDx=0;entryDy=0;" edge="1" parent="1" source="-I51igHoZUXPIICsRkif-2" target="-I51igHoZUXPIICsRkif-3">
          <mxGeometry width="50" height="50" relative="1" as="geometry">
            <mxPoint x="698" y="590" as="sourcePoint" />
            <mxPoint x="748" y="540" as="targetPoint" />
          </mxGeometry>
        </mxCell>
        <mxCell id="-I51igHoZUXPIICsRkif-5" value="1" style="text;html=1;strokeColor=none;fillColor=none;align=center;verticalAlign=middle;whiteSpace=wrap;rounded=0;" vertex="1" parent="1">
          <mxGeometry x="452" y="210" width="26" height="20" as="geometry" />
        </mxCell>
        <mxCell id="-I51igHoZUXPIICsRkif-6" value="*" style="text;html=1;strokeColor=none;fillColor=none;align=center;verticalAlign=middle;whiteSpace=wrap;rounded=0;" vertex="1" parent="1">
          <mxGeometry x="552" y="210" width="26" height="20" as="geometry" />
        </mxCell>
        <mxCell id="-I51igHoZUXPIICsRkif-7" value="Item" style="rounded=0;whiteSpace=wrap;html=1;" vertex="1" parent="1">
          <mxGeometry x="332" y="485" width="120" height="60" as="geometry" />
        </mxCell>
        <mxCell id="-I51igHoZUXPIICsRkif-8" value="SeedItem" style="rounded=0;whiteSpace=wrap;html=1;" vertex="1" parent="1">
          <mxGeometry x="578" y="445" width="120" height="60" as="geometry" />
        </mxCell>
        <mxCell id="-I51igHoZUXPIICsRkif-9" value="WaterItem" style="rounded=0;whiteSpace=wrap;html=1;" vertex="1" parent="1">
          <mxGeometry x="578" y="525" width="120" height="60" as="geometry" />
        </mxCell>
        <mxCell id="-I51igHoZUXPIICsRkif-10" value="" style="endArrow=block;endSize=16;endFill=0;html=1;rounded=0;entryX=1;entryY=0.5;entryDx=0;entryDy=0;exitX=0;exitY=0.5;exitDx=0;exitDy=0;" edge="1" parent="1" source="-I51igHoZUXPIICsRkif-9" target="-I51igHoZUXPIICsRkif-7">
          <mxGeometry x="0.0786" y="23" width="160" relative="1" as="geometry">
            <mxPoint x="568" y="585" as="sourcePoint" />
            <mxPoint x="728" y="585" as="targetPoint" />
            <Array as="points">
              <mxPoint x="528" y="555" />
              <mxPoint x="528" y="515" />
            </Array>
            <mxPoint as="offset" />
          </mxGeometry>
        </mxCell>
        <mxCell id="-I51igHoZUXPIICsRkif-11" value="" style="endArrow=block;endSize=16;endFill=0;html=1;rounded=0;exitX=0;exitY=0.5;exitDx=0;exitDy=0;entryX=1;entryY=0.5;entryDx=0;entryDy=0;" edge="1" parent="1" source="-I51igHoZUXPIICsRkif-8" target="-I51igHoZUXPIICsRkif-7">
          <mxGeometry x="0.0786" y="23" width="160" relative="1" as="geometry">
            <mxPoint x="488" y="465" as="sourcePoint" />
            <mxPoint x="458" y="515" as="targetPoint" />
            <Array as="points">
              <mxPoint x="528" y="475" />
              <mxPoint x="528" y="515" />
            </Array>
            <mxPoint as="offset" />
          </mxGeometry>
        </mxCell>
        <mxCell id="-I51igHoZUXPIICsRkif-12" value="" style="endArrow=none;html=1;rounded=0;exitX=0.5;exitY=0;exitDx=0;exitDy=0;entryX=0.5;entryY=1;entryDx=0;entryDy=0;" edge="1" parent="1" source="-I51igHoZUXPIICsRkif-8" target="-I51igHoZUXPIICsRkif-3">
          <mxGeometry width="50" height="50" relative="1" as="geometry">
            <mxPoint x="462.0000000000002" y="240.0000000000001" as="sourcePoint" />
            <mxPoint x="588" y="240.0000000000001" as="targetPoint" />
          </mxGeometry>
        </mxCell>
        <mxCell id="-I51igHoZUXPIICsRkif-13" value="1" style="text;html=1;strokeColor=none;fillColor=none;align=center;verticalAlign=middle;whiteSpace=wrap;rounded=0;" vertex="1" parent="1">
          <mxGeometry x="618" y="260" width="26" height="20" as="geometry" />
        </mxCell>
        <mxCell id="-I51igHoZUXPIICsRkif-14" value="*" style="text;html=1;strokeColor=none;fillColor=none;align=center;verticalAlign=middle;whiteSpace=wrap;rounded=0;" vertex="1" parent="1">
          <mxGeometry x="618" y="290" width="26" height="20" as="geometry" />
        </mxCell>
        <mxCell id="-I51igHoZUXPIICsRkif-15" value="Shop" style="rounded=0;whiteSpace=wrap;html=1;" vertex="1" parent="1">
          <mxGeometry x="118" y="485" width="120" height="60" as="geometry" />
        </mxCell>
        <mxCell id="-I51igHoZUXPIICsRkif-16" value="" style="endArrow=none;html=1;rounded=0;exitX=1;exitY=0.5;exitDx=0;exitDy=0;entryX=0;entryY=0.5;entryDx=0;entryDy=0;" edge="1" parent="1" source="-I51igHoZUXPIICsRkif-15" target="-I51igHoZUXPIICsRkif-7">
          <mxGeometry width="50" height="50" relative="1" as="geometry">
            <mxPoint x="402.0000000000002" y="405" as="sourcePoint" />
            <mxPoint x="402.0000000000002" y="495" as="targetPoint" />
          </mxGeometry>
        </mxCell>
        <mxCell id="-I51igHoZUXPIICsRkif-17" value="1" style="text;html=1;strokeColor=none;fillColor=none;align=center;verticalAlign=middle;whiteSpace=wrap;rounded=0;" vertex="1" parent="1">
          <mxGeometry x="238" y="495" width="26" height="20" as="geometry" />
        </mxCell>
        <mxCell id="-I51igHoZUXPIICsRkif-18" value="*" style="text;html=1;strokeColor=none;fillColor=none;align=center;verticalAlign=middle;whiteSpace=wrap;rounded=0;" vertex="1" parent="1">
          <mxGeometry x="306" y="495" width="26" height="20" as="geometry" />
        </mxCell>
        <mxCell id="-I51igHoZUXPIICsRkif-19" value="나무 심기" style="shape=umlFrame;whiteSpace=wrap;html=1;width=150;height=40;" vertex="1" parent="1">
          <mxGeometry x="880" y="140" width="690" height="370" as="geometry" />
        </mxCell>
        <mxCell id="-I51igHoZUXPIICsRkif-20" value="User" style="rounded=0;whiteSpace=wrap;html=1;" vertex="1" parent="1">
          <mxGeometry x="1042" y="230" width="120" height="60" as="geometry" />
        </mxCell>
        <mxCell id="-I51igHoZUXPIICsRkif-21" value="TreeCluster" style="rounded=0;whiteSpace=wrap;html=1;" vertex="1" parent="1">
          <mxGeometry x="1331" y="230" width="120" height="60" as="geometry" />
        </mxCell>
        <mxCell id="-I51igHoZUXPIICsRkif-22" value="" style="endArrow=none;html=1;rounded=0;exitX=1;exitY=0.5;exitDx=0;exitDy=0;entryX=0;entryY=0.5;entryDx=0;entryDy=0;" edge="1" parent="1" source="-I51igHoZUXPIICsRkif-20" target="-I51igHoZUXPIICsRkif-21">
          <mxGeometry width="50" height="50" relative="1" as="geometry">
            <mxPoint x="1294" y="-190" as="sourcePoint" />
            <mxPoint x="1294" y="-100" as="targetPoint" />
          </mxGeometry>
        </mxCell>
        <mxCell id="-I51igHoZUXPIICsRkif-23" value="" style="endArrow=none;html=1;rounded=0;entryX=0;entryY=0.5;entryDx=0;entryDy=0;" edge="1" parent="1" target="-I51igHoZUXPIICsRkif-20">
          <mxGeometry width="50" height="50" relative="1" as="geometry">
            <mxPoint x="918" y="260" as="sourcePoint" />
            <mxPoint x="1042" y="259.5" as="targetPoint" />
          </mxGeometry>
        </mxCell>
        <mxCell id="-I51igHoZUXPIICsRkif-24" value="2. 심기 가능 판단하라" style="text;html=1;strokeColor=none;fillColor=none;align=center;verticalAlign=middle;whiteSpace=wrap;rounded=0;" vertex="1" parent="1">
          <mxGeometry x="1191" y="220" width="121" height="30" as="geometry" />
        </mxCell>
        <mxCell id="-I51igHoZUXPIICsRkif-25" value="1. 나무 심어라" style="text;html=1;strokeColor=none;fillColor=none;align=center;verticalAlign=middle;whiteSpace=wrap;rounded=0;" vertex="1" parent="1">
          <mxGeometry x="941" y="220" width="80" height="30" as="geometry" />
        </mxCell>
        <mxCell id="-I51igHoZUXPIICsRkif-26" value="" style="endArrow=classic;html=1;rounded=0;" edge="1" parent="1">
          <mxGeometry width="50" height="50" relative="1" as="geometry">
            <mxPoint x="888" y="565" as="sourcePoint" />
            <mxPoint x="948" y="565" as="targetPoint" />
          </mxGeometry>
        </mxCell>
        <mxCell id="-I51igHoZUXPIICsRkif-27" value="" style="endArrow=classic;html=1;rounded=0;" edge="1" parent="1">
          <mxGeometry width="50" height="50" relative="1" as="geometry">
            <mxPoint x="1020" y="565" as="sourcePoint" />
            <mxPoint x="961" y="565" as="targetPoint" />
          </mxGeometry>
        </mxCell>
        <mxCell id="-I51igHoZUXPIICsRkif-28" value="" style="endArrow=classic;html=1;rounded=0;" edge="1" parent="1">
          <mxGeometry width="50" height="50" relative="1" as="geometry">
            <mxPoint x="1221.5" y="250" as="sourcePoint" />
            <mxPoint x="1281.5" y="250" as="targetPoint" />
          </mxGeometry>
        </mxCell>
        <mxCell id="-I51igHoZUXPIICsRkif-29" value="" style="endArrow=classic;html=1;rounded=0;" edge="1" parent="1">
          <mxGeometry width="50" height="50" relative="1" as="geometry">
            <mxPoint x="951" y="249.5999999999999" as="sourcePoint" />
            <mxPoint x="1011" y="249.5999999999999" as="targetPoint" />
          </mxGeometry>
        </mxCell>
        <mxCell id="-I51igHoZUXPIICsRkif-30" value="" style="endArrow=classic;html=1;rounded=0;" edge="1" parent="1">
          <mxGeometry width="50" height="50" relative="1" as="geometry">
            <mxPoint x="1281" y="270" as="sourcePoint" />
            <mxPoint x="1222" y="270" as="targetPoint" />
          </mxGeometry>
        </mxCell>
        <mxCell id="-I51igHoZUXPIICsRkif-31" value="가능" style="text;html=1;strokeColor=none;fillColor=none;align=center;verticalAlign=middle;whiteSpace=wrap;rounded=0;" vertex="1" parent="1">
          <mxGeometry x="1226.5" y="270" width="50" height="30" as="geometry" />
        </mxCell>
        <mxCell id="-I51igHoZUXPIICsRkif-32" value="SeedItem" style="rounded=0;whiteSpace=wrap;html=1;" vertex="1" parent="1">
          <mxGeometry x="1042" y="390" width="120" height="60" as="geometry" />
        </mxCell>
        <mxCell id="-I51igHoZUXPIICsRkif-33" value="" style="endArrow=classic;html=1;rounded=0;" edge="1" parent="1">
          <mxGeometry width="50" height="50" relative="1" as="geometry">
            <mxPoint x="1047" y="525" as="sourcePoint" />
            <mxPoint x="1047" y="585" as="targetPoint" />
            <Array as="points">
              <mxPoint x="1047" y="555" />
            </Array>
          </mxGeometry>
        </mxCell>
        <mxCell id="-I51igHoZUXPIICsRkif-34" value="" style="endArrow=none;html=1;rounded=0;exitX=0.5;exitY=1;exitDx=0;exitDy=0;entryX=0.5;entryY=0;entryDx=0;entryDy=0;" edge="1" parent="1" source="-I51igHoZUXPIICsRkif-20" target="-I51igHoZUXPIICsRkif-32">
          <mxGeometry width="50" height="50" relative="1" as="geometry">
            <mxPoint x="1172" y="270" as="sourcePoint" />
            <mxPoint x="1341" y="270" as="targetPoint" />
          </mxGeometry>
        </mxCell>
        <mxCell id="-I51igHoZUXPIICsRkif-35" value="" style="endArrow=classic;html=1;rounded=0;" edge="1" parent="1">
          <mxGeometry width="50" height="50" relative="1" as="geometry">
            <mxPoint x="1091" y="310" as="sourcePoint" />
            <mxPoint x="1091" y="370" as="targetPoint" />
            <Array as="points">
              <mxPoint x="1091" y="340" />
            </Array>
          </mxGeometry>
        </mxCell>
        <mxCell id="-I51igHoZUXPIICsRkif-36" value="3. 아이템 사용 가능&lt;br&gt;판단하라" style="text;html=1;strokeColor=none;fillColor=none;align=center;verticalAlign=middle;whiteSpace=wrap;rounded=0;" vertex="1" parent="1">
          <mxGeometry x="961" y="320" width="130" height="30" as="geometry" />
        </mxCell>
        <mxCell id="-I51igHoZUXPIICsRkif-37" value="" style="endArrow=classic;html=1;rounded=0;" edge="1" parent="1">
          <mxGeometry width="50" height="50" relative="1" as="geometry">
            <mxPoint x="1087" y="585" as="sourcePoint" />
            <mxPoint x="1087" y="525" as="targetPoint" />
            <Array as="points" />
          </mxGeometry>
        </mxCell>
        <mxCell id="-I51igHoZUXPIICsRkif-38" value="" style="endArrow=classic;html=1;rounded=0;" edge="1" parent="1">
          <mxGeometry width="50" height="50" relative="1" as="geometry">
            <mxPoint x="1111" y="370" as="sourcePoint" />
            <mxPoint x="1111" y="310" as="targetPoint" />
            <Array as="points" />
          </mxGeometry>
        </mxCell>
        <mxCell id="-I51igHoZUXPIICsRkif-39" value="가능" style="text;html=1;strokeColor=none;fillColor=none;align=center;verticalAlign=middle;whiteSpace=wrap;rounded=0;" vertex="1" parent="1">
          <mxGeometry x="1112" y="320" width="50" height="30" as="geometry" />
        </mxCell>
        <mxCell id="-I51igHoZUXPIICsRkif-40" value="Tree" style="rounded=0;whiteSpace=wrap;html=1;" vertex="1" parent="1">
          <mxGeometry x="1331" y="390" width="120" height="60" as="geometry" />
        </mxCell>
        <mxCell id="-I51igHoZUXPIICsRkif-41" value="" style="endArrow=none;html=1;rounded=0;exitX=1;exitY=1;exitDx=0;exitDy=0;" edge="1" parent="1" source="-I51igHoZUXPIICsRkif-20" target="-I51igHoZUXPIICsRkif-40">
          <mxGeometry width="50" height="50" relative="1" as="geometry">
            <mxPoint x="1172" y="270" as="sourcePoint" />
            <mxPoint x="1341" y="270" as="targetPoint" />
          </mxGeometry>
        </mxCell>
        <mxCell id="-I51igHoZUXPIICsRkif-42" value="" style="endArrow=classic;html=1;rounded=0;" edge="1" parent="1">
          <mxGeometry width="50" height="50" relative="1" as="geometry">
            <mxPoint x="1221" y="310" as="sourcePoint" />
            <mxPoint x="1291" y="350" as="targetPoint" />
            <Array as="points">
              <mxPoint x="1221" y="310" />
            </Array>
          </mxGeometry>
        </mxCell>
        <mxCell id="-I51igHoZUXPIICsRkif-43" value="&amp;lt;&amp;lt;create&amp;gt;&amp;gt;" style="text;html=1;strokeColor=none;fillColor=none;align=center;verticalAlign=middle;whiteSpace=wrap;rounded=0;" vertex="1" parent="1">
          <mxGeometry x="1263" y="310" width="66" height="30" as="geometry" />
        </mxCell>
        <mxCell id="-I51igHoZUXPIICsRkif-44" value="나무 상호작용하기" style="shape=umlFrame;whiteSpace=wrap;html=1;width=150;height=40;" vertex="1" parent="1">
          <mxGeometry x="880" y="620" width="690" height="370" as="geometry" />
        </mxCell>
        <mxCell id="-I51igHoZUXPIICsRkif-45" value="User" style="rounded=0;whiteSpace=wrap;html=1;" vertex="1" parent="1">
          <mxGeometry x="1042" y="710" width="120" height="60" as="geometry" />
        </mxCell>
        <mxCell id="-I51igHoZUXPIICsRkif-46" value="" style="endArrow=none;html=1;rounded=0;exitX=1;exitY=0.5;exitDx=0;exitDy=0;entryX=0;entryY=0.5;entryDx=0;entryDy=0;" edge="1" parent="1" target="-I51igHoZUXPIICsRkif-45">
          <mxGeometry width="50" height="50" relative="1" as="geometry">
            <mxPoint x="918" y="739.5" as="sourcePoint" />
            <mxPoint x="1042" y="739.5" as="targetPoint" />
          </mxGeometry>
        </mxCell>
        <mxCell id="-I51igHoZUXPIICsRkif-47" value="1. 상호작용해라" style="text;html=1;strokeColor=none;fillColor=none;align=center;verticalAlign=middle;whiteSpace=wrap;rounded=0;" vertex="1" parent="1">
          <mxGeometry x="931.5" y="700" width="99" height="30" as="geometry" />
        </mxCell>
        <mxCell id="-I51igHoZUXPIICsRkif-48" value="" style="endArrow=classic;html=1;rounded=0;" edge="1" parent="1">
          <mxGeometry width="50" height="50" relative="1" as="geometry">
            <mxPoint x="951" y="730" as="sourcePoint" />
            <mxPoint x="1011" y="730" as="targetPoint" />
          </mxGeometry>
        </mxCell>
        <mxCell id="-I51igHoZUXPIICsRkif-49" value="Tree" style="rounded=0;whiteSpace=wrap;html=1;" vertex="1" parent="1">
          <mxGeometry x="1320" y="710" width="120" height="60" as="geometry" />
        </mxCell>
        <mxCell id="-I51igHoZUXPIICsRkif-50" value="" style="endArrow=none;html=1;rounded=0;exitX=1;exitY=0.5;exitDx=0;exitDy=0;entryX=0;entryY=0.5;entryDx=0;entryDy=0;" edge="1" parent="1" source="-I51igHoZUXPIICsRkif-45" target="-I51igHoZUXPIICsRkif-49">
          <mxGeometry width="50" height="50" relative="1" as="geometry">
            <mxPoint x="1180" y="739.5" as="sourcePoint" />
            <mxPoint x="1304" y="740" as="targetPoint" />
          </mxGeometry>
        </mxCell>
        <mxCell id="-I51igHoZUXPIICsRkif-51" value="UserItem" style="rounded=0;whiteSpace=wrap;html=1;" vertex="1" parent="1">
          <mxGeometry x="1042" y="870" width="120" height="60" as="geometry" />
        </mxCell>
        <mxCell id="-I51igHoZUXPIICsRkif-52" value="" style="endArrow=none;html=1;rounded=0;exitX=0.5;exitY=1;exitDx=0;exitDy=0;entryX=0.5;entryY=0;entryDx=0;entryDy=0;" edge="1" parent="1" source="-I51igHoZUXPIICsRkif-45" target="-I51igHoZUXPIICsRkif-51">
          <mxGeometry width="50" height="50" relative="1" as="geometry">
            <mxPoint x="1172" y="750" as="sourcePoint" />
            <mxPoint x="1330" y="750" as="targetPoint" />
          </mxGeometry>
        </mxCell>
        <mxCell id="-I51igHoZUXPIICsRkif-53" value="" style="endArrow=classic;html=1;rounded=0;" edge="1" parent="1">
          <mxGeometry width="50" height="50" relative="1" as="geometry">
            <mxPoint x="1091" y="790" as="sourcePoint" />
            <mxPoint x="1091" y="850" as="targetPoint" />
            <Array as="points">
              <mxPoint x="1091" y="820" />
            </Array>
          </mxGeometry>
        </mxCell>
        <mxCell id="-I51igHoZUXPIICsRkif-54" value="2. 아이템 사용해라" style="text;html=1;strokeColor=none;fillColor=none;align=center;verticalAlign=middle;whiteSpace=wrap;rounded=0;" vertex="1" parent="1">
          <mxGeometry x="980" y="800" width="111" height="30" as="geometry" />
        </mxCell>
        <mxCell id="-I51igHoZUXPIICsRkif-55" value="" style="endArrow=classic;html=1;rounded=0;" edge="1" parent="1">
          <mxGeometry width="50" height="50" relative="1" as="geometry">
            <mxPoint x="1112" y="850" as="sourcePoint" />
            <mxPoint x="1112" y="790" as="targetPoint" />
            <Array as="points" />
          </mxGeometry>
        </mxCell>
        <mxCell id="-I51igHoZUXPIICsRkif-56" value="사용 결과/불가능" style="text;html=1;strokeColor=none;fillColor=none;align=center;verticalAlign=middle;whiteSpace=wrap;rounded=0;" vertex="1" parent="1">
          <mxGeometry x="1112" y="800" width="111" height="30" as="geometry" />
        </mxCell>
        <mxCell id="-I51igHoZUXPIICsRkif-57" value="3. 나무에 변화 줘라" style="text;html=1;strokeColor=none;fillColor=none;align=center;verticalAlign=middle;whiteSpace=wrap;rounded=0;" vertex="1" parent="1">
          <mxGeometry x="1185" y="700" width="111" height="30" as="geometry" />
        </mxCell>
        <mxCell id="-I51igHoZUXPIICsRkif-58" value="" style="endArrow=classic;html=1;rounded=0;" edge="1" parent="1">
          <mxGeometry width="50" height="50" relative="1" as="geometry">
            <mxPoint x="1221.5" y="730" as="sourcePoint" />
            <mxPoint x="1281.5" y="730" as="targetPoint" />
          </mxGeometry>
        </mxCell>
        <mxCell id="-I51igHoZUXPIICsRkif-59" value="포인트 전환하기" style="shape=umlFrame;whiteSpace=wrap;html=1;width=150;height=40;" vertex="1" parent="1">
          <mxGeometry x="1640" y="140" width="690" height="370" as="geometry" />
        </mxCell>
        <mxCell id="-I51igHoZUXPIICsRkif-60" value="&lt;font style=&quot;font-size: 48px&quot;&gt;UML Diagram&lt;br&gt;&lt;/font&gt;" style="text;html=1;strokeColor=none;fillColor=none;align=center;verticalAlign=middle;whiteSpace=wrap;rounded=0;" vertex="1" parent="1">
          <mxGeometry x="856.5" y="60" width="339" height="60" as="geometry" />
        </mxCell>
        <mxCell id="-I51igHoZUXPIICsRkif-61" value="&lt;font style=&quot;font-size: 48px&quot;&gt;Domain&lt;/font&gt;" style="text;html=1;strokeColor=none;fillColor=none;align=center;verticalAlign=middle;whiteSpace=wrap;rounded=0;" vertex="1" parent="1">
          <mxGeometry x="30" y="70" width="227.5" height="60" as="geometry" />
        </mxCell>
        <mxCell id="-I51igHoZUXPIICsRkif-62" value="User" style="rounded=0;whiteSpace=wrap;html=1;" vertex="1" parent="1">
          <mxGeometry x="1800" y="230" width="120" height="60" as="geometry" />
        </mxCell>
        <mxCell id="-I51igHoZUXPIICsRkif-63" value="" style="endArrow=none;html=1;rounded=0;entryX=0;entryY=0.5;entryDx=0;entryDy=0;" edge="1" parent="1" target="-I51igHoZUXPIICsRkif-62">
          <mxGeometry width="50" height="50" relative="1" as="geometry">
            <mxPoint x="1676" y="260" as="sourcePoint" />
            <mxPoint x="1800" y="259.52" as="targetPoint" />
          </mxGeometry>
        </mxCell>
        <mxCell id="-I51igHoZUXPIICsRkif-64" value="" style="endArrow=classic;html=1;rounded=0;" edge="1" parent="1">
          <mxGeometry width="50" height="50" relative="1" as="geometry">
            <mxPoint x="1710" y="250" as="sourcePoint" />
            <mxPoint x="1770" y="250" as="targetPoint" />
          </mxGeometry>
        </mxCell>
        <mxCell id="-I51igHoZUXPIICsRkif-65" value="1. 포인트 전환해라" style="text;html=1;strokeColor=none;fillColor=none;align=center;verticalAlign=middle;whiteSpace=wrap;rounded=0;" vertex="1" parent="1">
          <mxGeometry x="1680" y="220" width="110" height="30" as="geometry" />
        </mxCell>
        <mxCell id="-I51igHoZUXPIICsRkif-66" value="2. 시간 검증해라" style="text;html=1;strokeColor=none;fillColor=none;align=center;verticalAlign=middle;whiteSpace=wrap;rounded=0;" vertex="1" parent="1">
          <mxGeometry x="1810" y="340" width="110" height="30" as="geometry" />
        </mxCell>
        <mxCell id="-I51igHoZUXPIICsRkif-67" value="3. 물 아이템 추가해라" style="text;html=1;strokeColor=none;fillColor=none;align=center;verticalAlign=middle;whiteSpace=wrap;rounded=0;" vertex="1" parent="1">
          <mxGeometry x="1920" y="220" width="140" height="30" as="geometry" />
        </mxCell>
        <mxCell id="-I51igHoZUXPIICsRkif-68" value="UserItem" style="rounded=0;whiteSpace=wrap;html=1;" vertex="1" parent="1">
          <mxGeometry x="2067" y="230" width="120" height="60" as="geometry" />
        </mxCell>
        <mxCell id="-I51igHoZUXPIICsRkif-69" value="" style="endArrow=none;html=1;rounded=0;entryX=0;entryY=0.5;entryDx=0;entryDy=0;exitX=1;exitY=0.5;exitDx=0;exitDy=0;" edge="1" parent="1" source="-I51igHoZUXPIICsRkif-62" target="-I51igHoZUXPIICsRkif-68">
          <mxGeometry width="50" height="50" relative="1" as="geometry">
            <mxPoint x="1944" y="259.05" as="sourcePoint" />
            <mxPoint x="2068" y="259.05" as="targetPoint" />
          </mxGeometry>
        </mxCell>
        <mxCell id="-I51igHoZUXPIICsRkif-70" value="" style="endArrow=classic;html=1;rounded=0;" edge="1" parent="1">
          <mxGeometry width="50" height="50" relative="1" as="geometry">
            <mxPoint x="1970" y="250" as="sourcePoint" />
            <mxPoint x="2030" y="250" as="targetPoint" />
          </mxGeometry>
        </mxCell>
        <mxCell id="-I51igHoZUXPIICsRkif-71" value="아이템 구매하기" style="shape=umlFrame;whiteSpace=wrap;html=1;width=150;height=40;" vertex="1" parent="1">
          <mxGeometry x="1640" y="630" width="690" height="370" as="geometry" />
        </mxCell>
        <mxCell id="-I51igHoZUXPIICsRkif-72" value="" style="curved=1;endArrow=classic;html=1;rounded=0;fontSize=48;exitX=0.5;exitY=1;exitDx=0;exitDy=0;entryX=0.5;entryY=1;entryDx=0;entryDy=0;" edge="1" parent="1" source="-I51igHoZUXPIICsRkif-62" target="-I51igHoZUXPIICsRkif-62">
          <mxGeometry width="50" height="50" relative="1" as="geometry">
            <mxPoint x="2370" y="420" as="sourcePoint" />
            <mxPoint x="2420" y="370" as="targetPoint" />
            <Array as="points">
              <mxPoint x="1800" y="340" />
              <mxPoint x="1930" y="340" />
            </Array>
          </mxGeometry>
        </mxCell>
        <mxCell id="-I51igHoZUXPIICsRkif-73" value="User" style="rounded=0;whiteSpace=wrap;html=1;" vertex="1" parent="1">
          <mxGeometry x="1795" y="750" width="120" height="60" as="geometry" />
        </mxCell>
        <mxCell id="-I51igHoZUXPIICsRkif-74" value="" style="endArrow=none;html=1;rounded=0;entryX=0;entryY=0.5;entryDx=0;entryDy=0;" edge="1" parent="1" target="-I51igHoZUXPIICsRkif-73">
          <mxGeometry width="50" height="50" relative="1" as="geometry">
            <mxPoint x="1680" y="780" as="sourcePoint" />
            <mxPoint x="1789.9999999999995" y="779.91" as="targetPoint" />
          </mxGeometry>
        </mxCell>
        <mxCell id="-I51igHoZUXPIICsRkif-75" value="" style="endArrow=classic;html=1;rounded=0;" edge="1" parent="1">
          <mxGeometry width="50" height="50" relative="1" as="geometry">
            <mxPoint x="1705" y="769.1700000000001" as="sourcePoint" />
            <mxPoint x="1765" y="769.1700000000001" as="targetPoint" />
          </mxGeometry>
        </mxCell>
        <mxCell id="-I51igHoZUXPIICsRkif-76" value="1. 아이템 구매해라" style="text;html=1;strokeColor=none;fillColor=none;align=center;verticalAlign=middle;whiteSpace=wrap;rounded=0;" vertex="1" parent="1">
          <mxGeometry x="1680" y="740" width="104.5" height="30" as="geometry" />
        </mxCell>
        <mxCell id="-I51igHoZUXPIICsRkif-77" value="Shop" style="rounded=0;whiteSpace=wrap;html=1;" vertex="1" parent="1">
          <mxGeometry x="2067" y="750" width="120" height="60" as="geometry" />
        </mxCell>
        <mxCell id="-I51igHoZUXPIICsRkif-78" value="" style="endArrow=none;html=1;rounded=0;entryX=1;entryY=0.5;entryDx=0;entryDy=0;exitX=0;exitY=0.5;exitDx=0;exitDy=0;" edge="1" parent="1" source="-I51igHoZUXPIICsRkif-77" target="-I51igHoZUXPIICsRkif-73">
          <mxGeometry width="50" height="50" relative="1" as="geometry">
            <mxPoint x="1690" y="790" as="sourcePoint" />
            <mxPoint x="1804.9999999999995" y="790" as="targetPoint" />
          </mxGeometry>
        </mxCell>
        <mxCell id="-I51igHoZUXPIICsRkif-79" value="2. 아이템 조회해라" style="text;html=1;strokeColor=none;fillColor=none;align=center;verticalAlign=middle;whiteSpace=wrap;rounded=0;" vertex="1" parent="1">
          <mxGeometry x="1937.75" y="740" width="104.5" height="30" as="geometry" />
        </mxCell>
        <mxCell id="-I51igHoZUXPIICsRkif-80" value="" style="endArrow=classic;html=1;rounded=0;" edge="1" parent="1">
          <mxGeometry width="50" height="50" relative="1" as="geometry">
            <mxPoint x="1960" y="770" as="sourcePoint" />
            <mxPoint x="2020" y="770" as="targetPoint" />
          </mxGeometry>
        </mxCell>
        <mxCell id="-I51igHoZUXPIICsRkif-81" value="" style="endArrow=classic;html=1;rounded=0;" edge="1" parent="1">
          <mxGeometry width="50" height="50" relative="1" as="geometry">
            <mxPoint x="2019.5" y="790" as="sourcePoint" />
            <mxPoint x="1960.5" y="790" as="targetPoint" />
          </mxGeometry>
        </mxCell>
        <mxCell id="-I51igHoZUXPIICsRkif-82" value="item" style="text;html=1;strokeColor=none;fillColor=none;align=center;verticalAlign=middle;whiteSpace=wrap;rounded=0;" vertex="1" parent="1">
          <mxGeometry x="1937.75" y="790" width="104.5" height="30" as="geometry" />
        </mxCell>
        <mxCell id="-I51igHoZUXPIICsRkif-83" value="" style="curved=1;endArrow=classic;html=1;rounded=0;fontSize=48;exitX=0.5;exitY=0;exitDx=0;exitDy=0;entryX=0.5;entryY=0;entryDx=0;entryDy=0;" edge="1" parent="1" source="-I51igHoZUXPIICsRkif-73" target="-I51igHoZUXPIICsRkif-73">
          <mxGeometry width="50" height="50" relative="1" as="geometry">
            <mxPoint x="1849.9999999999995" y="690" as="sourcePoint" />
            <mxPoint x="1849.9999999999995" y="690" as="targetPoint" />
            <Array as="points">
              <mxPoint x="1770" y="690" />
              <mxPoint x="1930" y="690" />
            </Array>
          </mxGeometry>
        </mxCell>
        <mxCell id="-I51igHoZUXPIICsRkif-84" value="3. 포인트 검증해라" style="text;html=1;strokeColor=none;fillColor=none;align=center;verticalAlign=middle;whiteSpace=wrap;rounded=0;" vertex="1" parent="1">
          <mxGeometry x="1800" y="660" width="110" height="30" as="geometry" />
        </mxCell>
        <mxCell id="-I51igHoZUXPIICsRkif-85" value="UserItem" style="rounded=0;whiteSpace=wrap;html=1;" vertex="1" parent="1">
          <mxGeometry x="1795" y="910" width="120" height="60" as="geometry" />
        </mxCell>
        <mxCell id="-I51igHoZUXPIICsRkif-86" value="" style="endArrow=none;html=1;rounded=0;entryX=0.5;entryY=1;entryDx=0;entryDy=0;exitX=0.5;exitY=0;exitDx=0;exitDy=0;" edge="1" parent="1" source="-I51igHoZUXPIICsRkif-85" target="-I51igHoZUXPIICsRkif-73">
          <mxGeometry width="50" height="50" relative="1" as="geometry">
            <mxPoint x="2077" y="790" as="sourcePoint" />
            <mxPoint x="1924.9999999999995" y="790" as="targetPoint" />
          </mxGeometry>
        </mxCell>
        <mxCell id="-I51igHoZUXPIICsRkif-87" value="" style="endArrow=classic;html=1;rounded=0;" edge="1" parent="1">
          <mxGeometry width="50" height="50" relative="1" as="geometry">
            <mxPoint x="1840" y="830" as="sourcePoint" />
            <mxPoint x="1840" y="890" as="targetPoint" />
            <Array as="points">
              <mxPoint x="1840" y="860" />
            </Array>
          </mxGeometry>
        </mxCell>
        <mxCell id="-I51igHoZUXPIICsRkif-88" value="&amp;lt;&amp;lt;create&amp;gt;&amp;gt;" style="text;html=1;strokeColor=none;fillColor=none;align=center;verticalAlign=middle;whiteSpace=wrap;rounded=0;" vertex="1" parent="1">
          <mxGeometry x="1730" y="840" width="104.5" height="30" as="geometry" />
        </mxCell>
        <mxCell id="-I51igHoZUXPIICsRkif-89" value="UserItem" style="rounded=0;whiteSpace=wrap;html=1;" vertex="1" parent="1">
          <mxGeometry x="332" y="340" width="120" height="60" as="geometry" />
        </mxCell>
        <mxCell id="-I51igHoZUXPIICsRkif-90" value="" style="endArrow=none;html=1;rounded=0;entryX=0.5;entryY=0;entryDx=0;entryDy=0;exitX=0.5;exitY=1;exitDx=0;exitDy=0;" edge="1" parent="1" source="-I51igHoZUXPIICsRkif-2" target="-I51igHoZUXPIICsRkif-89">
          <mxGeometry width="50" height="50" relative="1" as="geometry">
            <mxPoint x="394" y="260" as="sourcePoint" />
            <mxPoint x="342" y="525" as="targetPoint" />
          </mxGeometry>
        </mxCell>
        <mxCell id="-I51igHoZUXPIICsRkif-91" value="" style="endArrow=none;html=1;rounded=0;exitX=0.5;exitY=1;exitDx=0;exitDy=0;entryX=0.5;entryY=0;entryDx=0;entryDy=0;" edge="1" parent="1" source="-I51igHoZUXPIICsRkif-89" target="-I51igHoZUXPIICsRkif-7">
          <mxGeometry width="50" height="50" relative="1" as="geometry">
            <mxPoint x="401.9999999999998" y="270" as="sourcePoint" />
            <mxPoint x="394" y="485" as="targetPoint" />
          </mxGeometry>
        </mxCell>
        <mxCell id="-I51igHoZUXPIICsRkif-92" value="*" style="text;html=1;strokeColor=none;fillColor=none;align=center;verticalAlign=middle;whiteSpace=wrap;rounded=0;" vertex="1" parent="1">
          <mxGeometry x="370" y="400" width="26" height="20" as="geometry" />
        </mxCell>
        <mxCell id="-I51igHoZUXPIICsRkif-93" value="*" style="text;html=1;strokeColor=none;fillColor=none;align=center;verticalAlign=middle;whiteSpace=wrap;rounded=0;" vertex="1" parent="1">
          <mxGeometry x="370" y="320" width="26" height="20" as="geometry" />
        </mxCell>
        <mxCell id="-I51igHoZUXPIICsRkif-94" value="1" style="text;html=1;strokeColor=none;fillColor=none;align=center;verticalAlign=middle;whiteSpace=wrap;rounded=0;" vertex="1" parent="1">
          <mxGeometry x="370" y="465" width="26" height="20" as="geometry" />
        </mxCell>
        <mxCell id="-I51igHoZUXPIICsRkif-95" value="1" style="text;html=1;strokeColor=none;fillColor=none;align=center;verticalAlign=middle;whiteSpace=wrap;rounded=0;" vertex="1" parent="1">
          <mxGeometry x="370" y="260" width="26" height="20" as="geometry" />
        </mxCell>
        <mxCell id="-I51igHoZUXPIICsRkif-96" value="ER Diagram" style="text;html=1;strokeColor=none;fillColor=none;align=center;verticalAlign=middle;whiteSpace=wrap;rounded=0;fontSize=48;" vertex="1" parent="1">
          <mxGeometry x="856.5" y="1160" width="310" height="70" as="geometry" />
        </mxCell>
        <mxCell id="-I51igHoZUXPIICsRkif-97" value="ERD" style="shape=umlFrame;whiteSpace=wrap;html=1;width=150;height=40;" vertex="1" parent="1">
          <mxGeometry x="880" y="1250" width="1450" height="790" as="geometry" />
        </mxCell>
        <mxCell id="-I51igHoZUXPIICsRkif-98" value="User" style="shape=table;startSize=30;container=1;collapsible=1;childLayout=tableLayout;fixedRows=1;rowLines=0;fontStyle=1;align=center;resizeLast=1;fontSize=12;" vertex="1" parent="1">
          <mxGeometry x="1418.5" y="1410" width="180" height="250" as="geometry" />
        </mxCell>
        <mxCell id="-I51igHoZUXPIICsRkif-99" value="" style="shape=tableRow;horizontal=0;startSize=0;swimlaneHead=0;swimlaneBody=0;fillColor=none;collapsible=0;dropTarget=0;points=[[0,0.5],[1,0.5]];portConstraint=eastwest;top=0;left=0;right=0;bottom=1;fontSize=12;" vertex="1" parent="-I51igHoZUXPIICsRkif-98">
          <mxGeometry y="30" width="180" height="30" as="geometry" />
        </mxCell>
        <mxCell id="-I51igHoZUXPIICsRkif-100" value="PK" style="shape=partialRectangle;connectable=0;fillColor=none;top=0;left=0;bottom=0;right=0;fontStyle=1;overflow=hidden;fontSize=12;" vertex="1" parent="-I51igHoZUXPIICsRkif-99">
          <mxGeometry width="30" height="30" as="geometry">
            <mxRectangle width="30" height="30" as="alternateBounds" />
          </mxGeometry>
        </mxCell>
        <mxCell id="-I51igHoZUXPIICsRkif-101" value="user_id" style="shape=partialRectangle;connectable=0;fillColor=none;top=0;left=0;bottom=0;right=0;align=left;spacingLeft=6;fontStyle=5;overflow=hidden;fontSize=12;" vertex="1" parent="-I51igHoZUXPIICsRkif-99">
          <mxGeometry x="30" width="150" height="30" as="geometry">
            <mxRectangle width="150" height="30" as="alternateBounds" />
          </mxGeometry>
        </mxCell>
        <mxCell id="-I51igHoZUXPIICsRkif-102" value="" style="shape=tableRow;horizontal=0;startSize=0;swimlaneHead=0;swimlaneBody=0;fillColor=none;collapsible=0;dropTarget=0;points=[[0,0.5],[1,0.5]];portConstraint=eastwest;top=0;left=0;right=0;bottom=0;fontSize=12;" vertex="1" parent="-I51igHoZUXPIICsRkif-98">
          <mxGeometry y="60" width="180" height="30" as="geometry" />
        </mxCell>
        <mxCell id="-I51igHoZUXPIICsRkif-103" value="" style="shape=partialRectangle;connectable=0;fillColor=none;top=0;left=0;bottom=0;right=0;editable=1;overflow=hidden;fontSize=12;" vertex="1" parent="-I51igHoZUXPIICsRkif-102">
          <mxGeometry width="30" height="30" as="geometry">
            <mxRectangle width="30" height="30" as="alternateBounds" />
          </mxGeometry>
        </mxCell>
        <mxCell id="-I51igHoZUXPIICsRkif-104" value="google_id" style="shape=partialRectangle;connectable=0;fillColor=none;top=0;left=0;bottom=0;right=0;align=left;spacingLeft=6;overflow=hidden;fontSize=12;" vertex="1" parent="-I51igHoZUXPIICsRkif-102">
          <mxGeometry x="30" width="150" height="30" as="geometry">
            <mxRectangle width="150" height="30" as="alternateBounds" />
          </mxGeometry>
        </mxCell>
        <mxCell id="-I51igHoZUXPIICsRkif-105" value="" style="shape=tableRow;horizontal=0;startSize=0;swimlaneHead=0;swimlaneBody=0;fillColor=none;collapsible=0;dropTarget=0;points=[[0,0.5],[1,0.5]];portConstraint=eastwest;top=0;left=0;right=0;bottom=0;fontSize=12;" vertex="1" parent="-I51igHoZUXPIICsRkif-98">
          <mxGeometry y="90" width="180" height="30" as="geometry" />
        </mxCell>
        <mxCell id="-I51igHoZUXPIICsRkif-106" value="" style="shape=partialRectangle;connectable=0;fillColor=none;top=0;left=0;bottom=0;right=0;editable=1;overflow=hidden;fontSize=12;" vertex="1" parent="-I51igHoZUXPIICsRkif-105">
          <mxGeometry width="30" height="30" as="geometry">
            <mxRectangle width="30" height="30" as="alternateBounds" />
          </mxGeometry>
        </mxCell>
        <mxCell id="-I51igHoZUXPIICsRkif-107" value="username" style="shape=partialRectangle;connectable=0;fillColor=none;top=0;left=0;bottom=0;right=0;align=left;spacingLeft=6;overflow=hidden;fontSize=12;" vertex="1" parent="-I51igHoZUXPIICsRkif-105">
          <mxGeometry x="30" width="150" height="30" as="geometry">
            <mxRectangle width="150" height="30" as="alternateBounds" />
          </mxGeometry>
        </mxCell>
        <mxCell id="-I51igHoZUXPIICsRkif-108" value="" style="shape=tableRow;horizontal=0;startSize=0;swimlaneHead=0;swimlaneBody=0;fillColor=none;collapsible=0;dropTarget=0;points=[[0,0.5],[1,0.5]];portConstraint=eastwest;top=0;left=0;right=0;bottom=0;fontSize=12;" vertex="1" parent="-I51igHoZUXPIICsRkif-98">
          <mxGeometry y="120" width="180" height="30" as="geometry" />
        </mxCell>
        <mxCell id="-I51igHoZUXPIICsRkif-109" value="" style="shape=partialRectangle;connectable=0;fillColor=none;top=0;left=0;bottom=0;right=0;editable=1;overflow=hidden;fontSize=12;" vertex="1" parent="-I51igHoZUXPIICsRkif-108">
          <mxGeometry width="30" height="30" as="geometry">
            <mxRectangle width="30" height="30" as="alternateBounds" />
          </mxGeometry>
        </mxCell>
        <mxCell id="-I51igHoZUXPIICsRkif-110" value="point" style="shape=partialRectangle;connectable=0;fillColor=none;top=0;left=0;bottom=0;right=0;align=left;spacingLeft=6;overflow=hidden;fontSize=12;" vertex="1" parent="-I51igHoZUXPIICsRkif-108">
          <mxGeometry x="30" width="150" height="30" as="geometry">
            <mxRectangle width="150" height="30" as="alternateBounds" />
          </mxGeometry>
        </mxCell>
        <mxCell id="-I51igHoZUXPIICsRkif-111" value="" style="shape=tableRow;horizontal=0;startSize=0;swimlaneHead=0;swimlaneBody=0;fillColor=none;collapsible=0;dropTarget=0;points=[[0,0.5],[1,0.5]];portConstraint=eastwest;top=0;left=0;right=0;bottom=0;fontSize=12;" vertex="1" parent="-I51igHoZUXPIICsRkif-98">
          <mxGeometry y="150" width="180" height="30" as="geometry" />
        </mxCell>
        <mxCell id="-I51igHoZUXPIICsRkif-112" value="" style="shape=partialRectangle;connectable=0;fillColor=none;top=0;left=0;bottom=0;right=0;editable=1;overflow=hidden;fontSize=12;" vertex="1" parent="-I51igHoZUXPIICsRkif-111">
          <mxGeometry width="30" height="30" as="geometry">
            <mxRectangle width="30" height="30" as="alternateBounds" />
          </mxGeometry>
        </mxCell>
        <mxCell id="-I51igHoZUXPIICsRkif-113" value="daily_walks" style="shape=partialRectangle;connectable=0;fillColor=none;top=0;left=0;bottom=0;right=0;align=left;spacingLeft=6;overflow=hidden;fontSize=12;" vertex="1" parent="-I51igHoZUXPIICsRkif-111">
          <mxGeometry x="30" width="150" height="30" as="geometry">
            <mxRectangle width="150" height="30" as="alternateBounds" />
          </mxGeometry>
        </mxCell>
        <mxCell id="-I51igHoZUXPIICsRkif-114" value="" style="shape=tableRow;horizontal=0;startSize=0;swimlaneHead=0;swimlaneBody=0;fillColor=none;collapsible=0;dropTarget=0;points=[[0,0.5],[1,0.5]];portConstraint=eastwest;top=0;left=0;right=0;bottom=0;fontSize=12;" vertex="1" parent="-I51igHoZUXPIICsRkif-98">
          <mxGeometry y="180" width="180" height="30" as="geometry" />
        </mxCell>
        <mxCell id="-I51igHoZUXPIICsRkif-115" value="" style="shape=partialRectangle;connectable=0;fillColor=none;top=0;left=0;bottom=0;right=0;editable=1;overflow=hidden;fontSize=12;" vertex="1" parent="-I51igHoZUXPIICsRkif-114">
          <mxGeometry width="30" height="30" as="geometry">
            <mxRectangle width="30" height="30" as="alternateBounds" />
          </mxGeometry>
        </mxCell>
        <mxCell id="-I51igHoZUXPIICsRkif-116" value="weekly_walks" style="shape=partialRectangle;connectable=0;fillColor=none;top=0;left=0;bottom=0;right=0;align=left;spacingLeft=6;overflow=hidden;fontSize=12;" vertex="1" parent="-I51igHoZUXPIICsRkif-114">
          <mxGeometry x="30" width="150" height="30" as="geometry">
            <mxRectangle width="150" height="30" as="alternateBounds" />
          </mxGeometry>
        </mxCell>
        <mxCell id="-I51igHoZUXPIICsRkif-117" value="" style="shape=tableRow;horizontal=0;startSize=0;swimlaneHead=0;swimlaneBody=0;fillColor=none;collapsible=0;dropTarget=0;points=[[0,0.5],[1,0.5]];portConstraint=eastwest;top=0;left=0;right=0;bottom=0;fontSize=12;" vertex="1" parent="-I51igHoZUXPIICsRkif-98">
          <mxGeometry y="210" width="180" height="30" as="geometry" />
        </mxCell>
        <mxCell id="-I51igHoZUXPIICsRkif-118" value="" style="shape=partialRectangle;connectable=0;fillColor=none;top=0;left=0;bottom=0;right=0;editable=1;overflow=hidden;fontSize=12;" vertex="1" parent="-I51igHoZUXPIICsRkif-117">
          <mxGeometry width="30" height="30" as="geometry">
            <mxRectangle width="30" height="30" as="alternateBounds" />
          </mxGeometry>
        </mxCell>
        <mxCell id="-I51igHoZUXPIICsRkif-119" value="monthly_walks" style="shape=partialRectangle;connectable=0;fillColor=none;top=0;left=0;bottom=0;right=0;align=left;spacingLeft=6;overflow=hidden;fontSize=12;" vertex="1" parent="-I51igHoZUXPIICsRkif-117">
          <mxGeometry x="30" width="150" height="30" as="geometry">
            <mxRectangle width="150" height="30" as="alternateBounds" />
          </mxGeometry>
        </mxCell>
        <mxCell id="-I51igHoZUXPIICsRkif-120" value="** 어떤 개인 정보를 저장할 지 논의 필요" style="text;html=1;strokeColor=none;fillColor=none;align=center;verticalAlign=middle;whiteSpace=wrap;rounded=0;fontSize=12;" vertex="1" parent="1">
          <mxGeometry x="1401.5" y="1360" width="214" height="30" as="geometry" />
        </mxCell>
        <mxCell id="-I51igHoZUXPIICsRkif-121" value="Walk Log" style="shape=table;startSize=30;container=1;collapsible=1;childLayout=tableLayout;fixedRows=1;rowLines=0;fontStyle=1;align=center;resizeLast=1;fontSize=12;" vertex="1" parent="1">
          <mxGeometry x="1153" y="1570" width="180" height="160" as="geometry" />
        </mxCell>
        <mxCell id="-I51igHoZUXPIICsRkif-122" value="" style="shape=tableRow;horizontal=0;startSize=0;swimlaneHead=0;swimlaneBody=0;fillColor=none;collapsible=0;dropTarget=0;points=[[0,0.5],[1,0.5]];portConstraint=eastwest;top=0;left=0;right=0;bottom=1;fontSize=12;" vertex="1" parent="-I51igHoZUXPIICsRkif-121">
          <mxGeometry y="30" width="180" height="30" as="geometry" />
        </mxCell>
        <mxCell id="-I51igHoZUXPIICsRkif-123" value="PK" style="shape=partialRectangle;connectable=0;fillColor=none;top=0;left=0;bottom=0;right=0;fontStyle=1;overflow=hidden;fontSize=12;" vertex="1" parent="-I51igHoZUXPIICsRkif-122">
          <mxGeometry width="30" height="30" as="geometry">
            <mxRectangle width="30" height="30" as="alternateBounds" />
          </mxGeometry>
        </mxCell>
        <mxCell id="-I51igHoZUXPIICsRkif-124" value="walk_log_id" style="shape=partialRectangle;connectable=0;fillColor=none;top=0;left=0;bottom=0;right=0;align=left;spacingLeft=6;fontStyle=5;overflow=hidden;fontSize=12;" vertex="1" parent="-I51igHoZUXPIICsRkif-122">
          <mxGeometry x="30" width="150" height="30" as="geometry">
            <mxRectangle width="150" height="30" as="alternateBounds" />
          </mxGeometry>
        </mxCell>
        <mxCell id="-I51igHoZUXPIICsRkif-125" value="" style="shape=tableRow;horizontal=0;startSize=0;swimlaneHead=0;swimlaneBody=0;fillColor=none;collapsible=0;dropTarget=0;points=[[0,0.5],[1,0.5]];portConstraint=eastwest;top=0;left=0;right=0;bottom=0;fontSize=12;" vertex="1" parent="-I51igHoZUXPIICsRkif-121">
          <mxGeometry y="60" width="180" height="30" as="geometry" />
        </mxCell>
        <mxCell id="-I51igHoZUXPIICsRkif-126" value="FK" style="shape=partialRectangle;connectable=0;fillColor=none;top=0;left=0;bottom=0;right=0;editable=1;overflow=hidden;fontSize=12;" vertex="1" parent="-I51igHoZUXPIICsRkif-125">
          <mxGeometry width="30" height="30" as="geometry">
            <mxRectangle width="30" height="30" as="alternateBounds" />
          </mxGeometry>
        </mxCell>
        <mxCell id="-I51igHoZUXPIICsRkif-127" value="user_id" style="shape=partialRectangle;connectable=0;fillColor=none;top=0;left=0;bottom=0;right=0;align=left;spacingLeft=6;overflow=hidden;fontSize=12;" vertex="1" parent="-I51igHoZUXPIICsRkif-125">
          <mxGeometry x="30" width="150" height="30" as="geometry">
            <mxRectangle width="150" height="30" as="alternateBounds" />
          </mxGeometry>
        </mxCell>
        <mxCell id="-I51igHoZUXPIICsRkif-128" value="" style="shape=tableRow;horizontal=0;startSize=0;swimlaneHead=0;swimlaneBody=0;fillColor=none;collapsible=0;dropTarget=0;points=[[0,0.5],[1,0.5]];portConstraint=eastwest;top=0;left=0;right=0;bottom=0;fontSize=12;" vertex="1" parent="-I51igHoZUXPIICsRkif-121">
          <mxGeometry y="90" width="180" height="30" as="geometry" />
        </mxCell>
        <mxCell id="-I51igHoZUXPIICsRkif-129" value="" style="shape=partialRectangle;connectable=0;fillColor=none;top=0;left=0;bottom=0;right=0;editable=1;overflow=hidden;fontSize=12;" vertex="1" parent="-I51igHoZUXPIICsRkif-128">
          <mxGeometry width="30" height="30" as="geometry">
            <mxRectangle width="30" height="30" as="alternateBounds" />
          </mxGeometry>
        </mxCell>
        <mxCell id="-I51igHoZUXPIICsRkif-130" value="walks" style="shape=partialRectangle;connectable=0;fillColor=none;top=0;left=0;bottom=0;right=0;align=left;spacingLeft=6;overflow=hidden;fontSize=12;" vertex="1" parent="-I51igHoZUXPIICsRkif-128">
          <mxGeometry x="30" width="150" height="30" as="geometry">
            <mxRectangle width="150" height="30" as="alternateBounds" />
          </mxGeometry>
        </mxCell>
        <mxCell id="-I51igHoZUXPIICsRkif-131" value="" style="shape=tableRow;horizontal=0;startSize=0;swimlaneHead=0;swimlaneBody=0;fillColor=none;collapsible=0;dropTarget=0;points=[[0,0.5],[1,0.5]];portConstraint=eastwest;top=0;left=0;right=0;bottom=0;fontSize=12;" vertex="1" parent="-I51igHoZUXPIICsRkif-121">
          <mxGeometry y="120" width="180" height="30" as="geometry" />
        </mxCell>
        <mxCell id="-I51igHoZUXPIICsRkif-132" value="" style="shape=partialRectangle;connectable=0;fillColor=none;top=0;left=0;bottom=0;right=0;editable=1;overflow=hidden;fontSize=12;" vertex="1" parent="-I51igHoZUXPIICsRkif-131">
          <mxGeometry width="30" height="30" as="geometry">
            <mxRectangle width="30" height="30" as="alternateBounds" />
          </mxGeometry>
        </mxCell>
        <mxCell id="-I51igHoZUXPIICsRkif-133" value="created_date" style="shape=partialRectangle;connectable=0;fillColor=none;top=0;left=0;bottom=0;right=0;align=left;spacingLeft=6;overflow=hidden;fontSize=12;" vertex="1" parent="-I51igHoZUXPIICsRkif-131">
          <mxGeometry x="30" width="150" height="30" as="geometry">
            <mxRectangle width="150" height="30" as="alternateBounds" />
          </mxGeometry>
        </mxCell>
        <mxCell id="-I51igHoZUXPIICsRkif-134" value="" style="edgeStyle=orthogonalEdgeStyle;fontSize=12;html=1;endArrow=ERoneToMany;rounded=0;entryX=0;entryY=0.5;entryDx=0;entryDy=0;exitX=0;exitY=0.5;exitDx=0;exitDy=0;" edge="1" parent="1" source="-I51igHoZUXPIICsRkif-99" target="-I51igHoZUXPIICsRkif-125">
          <mxGeometry width="100" height="100" relative="1" as="geometry">
            <mxPoint x="1072" y="1660" as="sourcePoint" />
            <mxPoint x="1172" y="1560" as="targetPoint" />
            <Array as="points">
              <mxPoint x="1112" y="1455" />
              <mxPoint x="1112" y="1645" />
            </Array>
          </mxGeometry>
        </mxCell>
        <mxCell id="-I51igHoZUXPIICsRkif-135" value="UserItem" style="shape=table;startSize=30;container=1;collapsible=1;childLayout=tableLayout;fixedRows=1;rowLines=0;fontStyle=1;align=center;resizeLast=1;fontSize=12;" vertex="1" parent="1">
          <mxGeometry x="1418.5" y="1710" width="180" height="160" as="geometry" />
        </mxCell>
        <mxCell id="-I51igHoZUXPIICsRkif-136" value="" style="shape=tableRow;horizontal=0;startSize=0;swimlaneHead=0;swimlaneBody=0;fillColor=none;collapsible=0;dropTarget=0;points=[[0,0.5],[1,0.5]];portConstraint=eastwest;top=0;left=0;right=0;bottom=1;fontSize=12;" vertex="1" parent="-I51igHoZUXPIICsRkif-135">
          <mxGeometry y="30" width="180" height="30" as="geometry" />
        </mxCell>
        <mxCell id="-I51igHoZUXPIICsRkif-137" value="PK" style="shape=partialRectangle;connectable=0;fillColor=none;top=0;left=0;bottom=0;right=0;fontStyle=1;overflow=hidden;fontSize=12;" vertex="1" parent="-I51igHoZUXPIICsRkif-136">
          <mxGeometry width="30" height="30" as="geometry">
            <mxRectangle width="30" height="30" as="alternateBounds" />
          </mxGeometry>
        </mxCell>
        <mxCell id="-I51igHoZUXPIICsRkif-138" value="user_item_id" style="shape=partialRectangle;connectable=0;fillColor=none;top=0;left=0;bottom=0;right=0;align=left;spacingLeft=6;fontStyle=5;overflow=hidden;fontSize=12;" vertex="1" parent="-I51igHoZUXPIICsRkif-136">
          <mxGeometry x="30" width="150" height="30" as="geometry">
            <mxRectangle width="150" height="30" as="alternateBounds" />
          </mxGeometry>
        </mxCell>
        <mxCell id="-I51igHoZUXPIICsRkif-139" value="" style="shape=tableRow;horizontal=0;startSize=0;swimlaneHead=0;swimlaneBody=0;fillColor=none;collapsible=0;dropTarget=0;points=[[0,0.5],[1,0.5]];portConstraint=eastwest;top=0;left=0;right=0;bottom=0;fontSize=12;" vertex="1" parent="-I51igHoZUXPIICsRkif-135">
          <mxGeometry y="60" width="180" height="30" as="geometry" />
        </mxCell>
        <mxCell id="-I51igHoZUXPIICsRkif-140" value="FK" style="shape=partialRectangle;connectable=0;fillColor=none;top=0;left=0;bottom=0;right=0;editable=1;overflow=hidden;fontSize=12;" vertex="1" parent="-I51igHoZUXPIICsRkif-139">
          <mxGeometry width="30" height="30" as="geometry">
            <mxRectangle width="30" height="30" as="alternateBounds" />
          </mxGeometry>
        </mxCell>
        <mxCell id="-I51igHoZUXPIICsRkif-141" value="user_id" style="shape=partialRectangle;connectable=0;fillColor=none;top=0;left=0;bottom=0;right=0;align=left;spacingLeft=6;overflow=hidden;fontSize=12;" vertex="1" parent="-I51igHoZUXPIICsRkif-139">
          <mxGeometry x="30" width="150" height="30" as="geometry">
            <mxRectangle width="150" height="30" as="alternateBounds" />
          </mxGeometry>
        </mxCell>
        <mxCell id="-I51igHoZUXPIICsRkif-142" value="" style="shape=tableRow;horizontal=0;startSize=0;swimlaneHead=0;swimlaneBody=0;fillColor=none;collapsible=0;dropTarget=0;points=[[0,0.5],[1,0.5]];portConstraint=eastwest;top=0;left=0;right=0;bottom=0;fontSize=12;" vertex="1" parent="-I51igHoZUXPIICsRkif-135">
          <mxGeometry y="90" width="180" height="30" as="geometry" />
        </mxCell>
        <mxCell id="-I51igHoZUXPIICsRkif-143" value="FK" style="shape=partialRectangle;connectable=0;fillColor=none;top=0;left=0;bottom=0;right=0;editable=1;overflow=hidden;fontSize=12;" vertex="1" parent="-I51igHoZUXPIICsRkif-142">
          <mxGeometry width="30" height="30" as="geometry">
            <mxRectangle width="30" height="30" as="alternateBounds" />
          </mxGeometry>
        </mxCell>
        <mxCell id="-I51igHoZUXPIICsRkif-144" value="item_id" style="shape=partialRectangle;connectable=0;fillColor=none;top=0;left=0;bottom=0;right=0;align=left;spacingLeft=6;overflow=hidden;fontSize=12;" vertex="1" parent="-I51igHoZUXPIICsRkif-142">
          <mxGeometry x="30" width="150" height="30" as="geometry">
            <mxRectangle width="150" height="30" as="alternateBounds" />
          </mxGeometry>
        </mxCell>
        <mxCell id="-I51igHoZUXPIICsRkif-145" value="" style="shape=tableRow;horizontal=0;startSize=0;swimlaneHead=0;swimlaneBody=0;fillColor=none;collapsible=0;dropTarget=0;points=[[0,0.5],[1,0.5]];portConstraint=eastwest;top=0;left=0;right=0;bottom=0;fontSize=12;" vertex="1" parent="-I51igHoZUXPIICsRkif-135">
          <mxGeometry y="120" width="180" height="30" as="geometry" />
        </mxCell>
        <mxCell id="-I51igHoZUXPIICsRkif-146" value="" style="shape=partialRectangle;connectable=0;fillColor=none;top=0;left=0;bottom=0;right=0;editable=1;overflow=hidden;fontSize=12;" vertex="1" parent="-I51igHoZUXPIICsRkif-145">
          <mxGeometry width="30" height="30" as="geometry">
            <mxRectangle width="30" height="30" as="alternateBounds" />
          </mxGeometry>
        </mxCell>
        <mxCell id="-I51igHoZUXPIICsRkif-147" value="created_date" style="shape=partialRectangle;connectable=0;fillColor=none;top=0;left=0;bottom=0;right=0;align=left;spacingLeft=6;overflow=hidden;fontSize=12;" vertex="1" parent="-I51igHoZUXPIICsRkif-145">
          <mxGeometry x="30" width="150" height="30" as="geometry">
            <mxRectangle width="150" height="30" as="alternateBounds" />
          </mxGeometry>
        </mxCell>
        <mxCell id="-I51igHoZUXPIICsRkif-148" value="" style="edgeStyle=orthogonalEdgeStyle;fontSize=12;html=1;endArrow=ERzeroToMany;endFill=1;rounded=0;exitX=0;exitY=0.5;exitDx=0;exitDy=0;entryX=0;entryY=0.5;entryDx=0;entryDy=0;" edge="1" parent="1" source="-I51igHoZUXPIICsRkif-99" target="-I51igHoZUXPIICsRkif-139">
          <mxGeometry width="100" height="100" relative="1" as="geometry">
            <mxPoint x="1682" y="1740" as="sourcePoint" />
            <mxPoint x="1782" y="1640" as="targetPoint" />
            <Array as="points">
              <mxPoint x="1372" y="1455" />
              <mxPoint x="1372" y="1785" />
            </Array>
          </mxGeometry>
        </mxCell>
        <mxCell id="-I51igHoZUXPIICsRkif-149" value="Item" style="shape=table;startSize=30;container=1;collapsible=1;childLayout=tableLayout;fixedRows=1;rowLines=0;fontStyle=1;align=center;resizeLast=1;fontSize=12;" vertex="1" parent="1">
          <mxGeometry x="1846" y="1770" width="180" height="160" as="geometry" />
        </mxCell>
        <mxCell id="-I51igHoZUXPIICsRkif-150" value="" style="shape=tableRow;horizontal=0;startSize=0;swimlaneHead=0;swimlaneBody=0;fillColor=none;collapsible=0;dropTarget=0;points=[[0,0.5],[1,0.5]];portConstraint=eastwest;top=0;left=0;right=0;bottom=1;fontSize=12;" vertex="1" parent="-I51igHoZUXPIICsRkif-149">
          <mxGeometry y="30" width="180" height="30" as="geometry" />
        </mxCell>
        <mxCell id="-I51igHoZUXPIICsRkif-151" value="PK" style="shape=partialRectangle;connectable=0;fillColor=none;top=0;left=0;bottom=0;right=0;fontStyle=1;overflow=hidden;fontSize=12;" vertex="1" parent="-I51igHoZUXPIICsRkif-150">
          <mxGeometry width="30" height="30" as="geometry">
            <mxRectangle width="30" height="30" as="alternateBounds" />
          </mxGeometry>
        </mxCell>
        <mxCell id="-I51igHoZUXPIICsRkif-152" value="item_id" style="shape=partialRectangle;connectable=0;fillColor=none;top=0;left=0;bottom=0;right=0;align=left;spacingLeft=6;fontStyle=5;overflow=hidden;fontSize=12;" vertex="1" parent="-I51igHoZUXPIICsRkif-150">
          <mxGeometry x="30" width="150" height="30" as="geometry">
            <mxRectangle width="150" height="30" as="alternateBounds" />
          </mxGeometry>
        </mxCell>
        <mxCell id="-I51igHoZUXPIICsRkif-153" value="" style="shape=tableRow;horizontal=0;startSize=0;swimlaneHead=0;swimlaneBody=0;fillColor=none;collapsible=0;dropTarget=0;points=[[0,0.5],[1,0.5]];portConstraint=eastwest;top=0;left=0;right=0;bottom=0;fontSize=12;" vertex="1" parent="-I51igHoZUXPIICsRkif-149">
          <mxGeometry y="60" width="180" height="30" as="geometry" />
        </mxCell>
        <mxCell id="-I51igHoZUXPIICsRkif-154" value="" style="shape=partialRectangle;connectable=0;fillColor=none;top=0;left=0;bottom=0;right=0;editable=1;overflow=hidden;fontSize=12;" vertex="1" parent="-I51igHoZUXPIICsRkif-153">
          <mxGeometry width="30" height="30" as="geometry">
            <mxRectangle width="30" height="30" as="alternateBounds" />
          </mxGeometry>
        </mxCell>
        <mxCell id="-I51igHoZUXPIICsRkif-155" value="item_name" style="shape=partialRectangle;connectable=0;fillColor=none;top=0;left=0;bottom=0;right=0;align=left;spacingLeft=6;overflow=hidden;fontSize=12;" vertex="1" parent="-I51igHoZUXPIICsRkif-153">
          <mxGeometry x="30" width="150" height="30" as="geometry">
            <mxRectangle width="150" height="30" as="alternateBounds" />
          </mxGeometry>
        </mxCell>
        <mxCell id="-I51igHoZUXPIICsRkif-156" value="" style="shape=tableRow;horizontal=0;startSize=0;swimlaneHead=0;swimlaneBody=0;fillColor=none;collapsible=0;dropTarget=0;points=[[0,0.5],[1,0.5]];portConstraint=eastwest;top=0;left=0;right=0;bottom=0;fontSize=12;" vertex="1" parent="-I51igHoZUXPIICsRkif-149">
          <mxGeometry y="90" width="180" height="30" as="geometry" />
        </mxCell>
        <mxCell id="-I51igHoZUXPIICsRkif-157" value="" style="shape=partialRectangle;connectable=0;fillColor=none;top=0;left=0;bottom=0;right=0;editable=1;overflow=hidden;fontSize=12;" vertex="1" parent="-I51igHoZUXPIICsRkif-156">
          <mxGeometry width="30" height="30" as="geometry">
            <mxRectangle width="30" height="30" as="alternateBounds" />
          </mxGeometry>
        </mxCell>
        <mxCell id="-I51igHoZUXPIICsRkif-158" value="cost" style="shape=partialRectangle;connectable=0;fillColor=none;top=0;left=0;bottom=0;right=0;align=left;spacingLeft=6;overflow=hidden;fontSize=12;" vertex="1" parent="-I51igHoZUXPIICsRkif-156">
          <mxGeometry x="30" width="150" height="30" as="geometry">
            <mxRectangle width="150" height="30" as="alternateBounds" />
          </mxGeometry>
        </mxCell>
        <mxCell id="-I51igHoZUXPIICsRkif-159" value="" style="shape=tableRow;horizontal=0;startSize=0;swimlaneHead=0;swimlaneBody=0;fillColor=none;collapsible=0;dropTarget=0;points=[[0,0.5],[1,0.5]];portConstraint=eastwest;top=0;left=0;right=0;bottom=0;fontSize=12;" vertex="1" parent="-I51igHoZUXPIICsRkif-149">
          <mxGeometry y="120" width="180" height="30" as="geometry" />
        </mxCell>
        <mxCell id="-I51igHoZUXPIICsRkif-160" value="" style="shape=partialRectangle;connectable=0;fillColor=none;top=0;left=0;bottom=0;right=0;editable=1;overflow=hidden;fontSize=12;" vertex="1" parent="-I51igHoZUXPIICsRkif-159">
          <mxGeometry width="30" height="30" as="geometry">
            <mxRectangle width="30" height="30" as="alternateBounds" />
          </mxGeometry>
        </mxCell>
        <mxCell id="-I51igHoZUXPIICsRkif-161" value="type" style="shape=partialRectangle;connectable=0;fillColor=none;top=0;left=0;bottom=0;right=0;align=left;spacingLeft=6;overflow=hidden;fontSize=12;" vertex="1" parent="-I51igHoZUXPIICsRkif-159">
          <mxGeometry x="30" width="150" height="30" as="geometry">
            <mxRectangle width="150" height="30" as="alternateBounds" />
          </mxGeometry>
        </mxCell>
        <mxCell id="-I51igHoZUXPIICsRkif-162" value="" style="edgeStyle=entityRelationEdgeStyle;fontSize=12;html=1;endArrow=ERzeroToMany;endFill=1;rounded=0;exitX=0;exitY=0.5;exitDx=0;exitDy=0;entryX=1;entryY=0.5;entryDx=0;entryDy=0;" edge="1" parent="1" source="-I51igHoZUXPIICsRkif-150" target="-I51igHoZUXPIICsRkif-142">
          <mxGeometry width="100" height="100" relative="1" as="geometry">
            <mxPoint x="1682" y="1740" as="sourcePoint" />
            <mxPoint x="1782" y="1640" as="targetPoint" />
          </mxGeometry>
        </mxCell>
        <mxCell id="-I51igHoZUXPIICsRkif-163" value="Tree" style="shape=table;startSize=30;container=1;collapsible=1;childLayout=tableLayout;fixedRows=1;rowLines=0;fontStyle=1;align=center;resizeLast=1;fontSize=12;" vertex="1" parent="1">
          <mxGeometry x="1846" y="1410" width="180" height="280" as="geometry" />
        </mxCell>
        <mxCell id="-I51igHoZUXPIICsRkif-164" value="" style="shape=tableRow;horizontal=0;startSize=0;swimlaneHead=0;swimlaneBody=0;fillColor=none;collapsible=0;dropTarget=0;points=[[0,0.5],[1,0.5]];portConstraint=eastwest;top=0;left=0;right=0;bottom=1;fontSize=12;" vertex="1" parent="-I51igHoZUXPIICsRkif-163">
          <mxGeometry y="30" width="180" height="30" as="geometry" />
        </mxCell>
        <mxCell id="-I51igHoZUXPIICsRkif-165" value="PK" style="shape=partialRectangle;connectable=0;fillColor=none;top=0;left=0;bottom=0;right=0;fontStyle=1;overflow=hidden;fontSize=12;" vertex="1" parent="-I51igHoZUXPIICsRkif-164">
          <mxGeometry width="30" height="30" as="geometry">
            <mxRectangle width="30" height="30" as="alternateBounds" />
          </mxGeometry>
        </mxCell>
        <mxCell id="-I51igHoZUXPIICsRkif-166" value="tree_id" style="shape=partialRectangle;connectable=0;fillColor=none;top=0;left=0;bottom=0;right=0;align=left;spacingLeft=6;fontStyle=5;overflow=hidden;fontSize=12;" vertex="1" parent="-I51igHoZUXPIICsRkif-164">
          <mxGeometry x="30" width="150" height="30" as="geometry">
            <mxRectangle width="150" height="30" as="alternateBounds" />
          </mxGeometry>
        </mxCell>
        <mxCell id="-I51igHoZUXPIICsRkif-167" value="" style="shape=tableRow;horizontal=0;startSize=0;swimlaneHead=0;swimlaneBody=0;fillColor=none;collapsible=0;dropTarget=0;points=[[0,0.5],[1,0.5]];portConstraint=eastwest;top=0;left=0;right=0;bottom=0;fontSize=12;" vertex="1" parent="-I51igHoZUXPIICsRkif-163">
          <mxGeometry y="60" width="180" height="30" as="geometry" />
        </mxCell>
        <mxCell id="-I51igHoZUXPIICsRkif-168" value="" style="shape=partialRectangle;connectable=0;fillColor=none;top=0;left=0;bottom=0;right=0;editable=1;overflow=hidden;fontSize=12;" vertex="1" parent="-I51igHoZUXPIICsRkif-167">
          <mxGeometry width="30" height="30" as="geometry">
            <mxRectangle width="30" height="30" as="alternateBounds" />
          </mxGeometry>
        </mxCell>
        <mxCell id="-I51igHoZUXPIICsRkif-169" value="item_id" style="shape=partialRectangle;connectable=0;fillColor=none;top=0;left=0;bottom=0;right=0;align=left;spacingLeft=6;overflow=hidden;fontSize=12;" vertex="1" parent="-I51igHoZUXPIICsRkif-167">
          <mxGeometry x="30" width="150" height="30" as="geometry">
            <mxRectangle width="150" height="30" as="alternateBounds" />
          </mxGeometry>
        </mxCell>
        <mxCell id="-I51igHoZUXPIICsRkif-170" value="" style="shape=tableRow;horizontal=0;startSize=0;swimlaneHead=0;swimlaneBody=0;fillColor=none;collapsible=0;dropTarget=0;points=[[0,0.5],[1,0.5]];portConstraint=eastwest;top=0;left=0;right=0;bottom=0;fontSize=12;" vertex="1" parent="-I51igHoZUXPIICsRkif-163">
          <mxGeometry y="90" width="180" height="30" as="geometry" />
        </mxCell>
        <mxCell id="-I51igHoZUXPIICsRkif-171" value="" style="shape=partialRectangle;connectable=0;fillColor=none;top=0;left=0;bottom=0;right=0;editable=1;overflow=hidden;fontSize=12;" vertex="1" parent="-I51igHoZUXPIICsRkif-170">
          <mxGeometry width="30" height="30" as="geometry">
            <mxRectangle width="30" height="30" as="alternateBounds" />
          </mxGeometry>
        </mxCell>
        <mxCell id="-I51igHoZUXPIICsRkif-172" value="tree_name" style="shape=partialRectangle;connectable=0;fillColor=none;top=0;left=0;bottom=0;right=0;align=left;spacingLeft=6;overflow=hidden;fontSize=12;" vertex="1" parent="-I51igHoZUXPIICsRkif-170">
          <mxGeometry x="30" width="150" height="30" as="geometry">
            <mxRectangle width="150" height="30" as="alternateBounds" />
          </mxGeometry>
        </mxCell>
        <mxCell id="-I51igHoZUXPIICsRkif-173" value="" style="shape=tableRow;horizontal=0;startSize=0;swimlaneHead=0;swimlaneBody=0;fillColor=none;collapsible=0;dropTarget=0;points=[[0,0.5],[1,0.5]];portConstraint=eastwest;top=0;left=0;right=0;bottom=0;fontSize=12;" vertex="1" parent="-I51igHoZUXPIICsRkif-163">
          <mxGeometry y="120" width="180" height="30" as="geometry" />
        </mxCell>
        <mxCell id="-I51igHoZUXPIICsRkif-174" value="" style="shape=partialRectangle;connectable=0;fillColor=none;top=0;left=0;bottom=0;right=0;editable=1;overflow=hidden;fontSize=12;" vertex="1" parent="-I51igHoZUXPIICsRkif-173">
          <mxGeometry width="30" height="30" as="geometry">
            <mxRectangle width="30" height="30" as="alternateBounds" />
          </mxGeometry>
        </mxCell>
        <mxCell id="-I51igHoZUXPIICsRkif-175" value="longtitude" style="shape=partialRectangle;connectable=0;fillColor=none;top=0;left=0;bottom=0;right=0;align=left;spacingLeft=6;overflow=hidden;fontSize=12;" vertex="1" parent="-I51igHoZUXPIICsRkif-173">
          <mxGeometry x="30" width="150" height="30" as="geometry">
            <mxRectangle width="150" height="30" as="alternateBounds" />
          </mxGeometry>
        </mxCell>
        <mxCell id="-I51igHoZUXPIICsRkif-176" value="" style="shape=tableRow;horizontal=0;startSize=0;swimlaneHead=0;swimlaneBody=0;fillColor=none;collapsible=0;dropTarget=0;points=[[0,0.5],[1,0.5]];portConstraint=eastwest;top=0;left=0;right=0;bottom=0;fontSize=12;" vertex="1" parent="-I51igHoZUXPIICsRkif-163">
          <mxGeometry y="150" width="180" height="30" as="geometry" />
        </mxCell>
        <mxCell id="-I51igHoZUXPIICsRkif-177" value="" style="shape=partialRectangle;connectable=0;fillColor=none;top=0;left=0;bottom=0;right=0;editable=1;overflow=hidden;fontSize=12;" vertex="1" parent="-I51igHoZUXPIICsRkif-176">
          <mxGeometry width="30" height="30" as="geometry">
            <mxRectangle width="30" height="30" as="alternateBounds" />
          </mxGeometry>
        </mxCell>
        <mxCell id="-I51igHoZUXPIICsRkif-178" value="langtitude" style="shape=partialRectangle;connectable=0;fillColor=none;top=0;left=0;bottom=0;right=0;align=left;spacingLeft=6;overflow=hidden;fontSize=12;" vertex="1" parent="-I51igHoZUXPIICsRkif-176">
          <mxGeometry x="30" width="150" height="30" as="geometry">
            <mxRectangle width="150" height="30" as="alternateBounds" />
          </mxGeometry>
        </mxCell>
        <mxCell id="-I51igHoZUXPIICsRkif-179" value="" style="shape=tableRow;horizontal=0;startSize=0;swimlaneHead=0;swimlaneBody=0;fillColor=none;collapsible=0;dropTarget=0;points=[[0,0.5],[1,0.5]];portConstraint=eastwest;top=0;left=0;right=0;bottom=0;fontSize=12;" vertex="1" parent="-I51igHoZUXPIICsRkif-163">
          <mxGeometry y="180" width="180" height="30" as="geometry" />
        </mxCell>
        <mxCell id="-I51igHoZUXPIICsRkif-180" value="" style="shape=partialRectangle;connectable=0;fillColor=none;top=0;left=0;bottom=0;right=0;editable=1;overflow=hidden;fontSize=12;" vertex="1" parent="-I51igHoZUXPIICsRkif-179">
          <mxGeometry width="30" height="30" as="geometry">
            <mxRectangle width="30" height="30" as="alternateBounds" />
          </mxGeometry>
        </mxCell>
        <mxCell id="-I51igHoZUXPIICsRkif-181" value="picture" style="shape=partialRectangle;connectable=0;fillColor=none;top=0;left=0;bottom=0;right=0;align=left;spacingLeft=6;overflow=hidden;fontSize=12;" vertex="1" parent="-I51igHoZUXPIICsRkif-179">
          <mxGeometry x="30" width="150" height="30" as="geometry">
            <mxRectangle width="150" height="30" as="alternateBounds" />
          </mxGeometry>
        </mxCell>
        <mxCell id="-I51igHoZUXPIICsRkif-182" value="" style="shape=tableRow;horizontal=0;startSize=0;swimlaneHead=0;swimlaneBody=0;fillColor=none;collapsible=0;dropTarget=0;points=[[0,0.5],[1,0.5]];portConstraint=eastwest;top=0;left=0;right=0;bottom=0;fontSize=12;" vertex="1" parent="-I51igHoZUXPIICsRkif-163">
          <mxGeometry y="210" width="180" height="30" as="geometry" />
        </mxCell>
        <mxCell id="-I51igHoZUXPIICsRkif-183" value="" style="shape=partialRectangle;connectable=0;fillColor=none;top=0;left=0;bottom=0;right=0;editable=1;overflow=hidden;fontSize=12;" vertex="1" parent="-I51igHoZUXPIICsRkif-182">
          <mxGeometry width="30" height="30" as="geometry">
            <mxRectangle width="30" height="30" as="alternateBounds" />
          </mxGeometry>
        </mxCell>
        <mxCell id="-I51igHoZUXPIICsRkif-184" value="description" style="shape=partialRectangle;connectable=0;fillColor=none;top=0;left=0;bottom=0;right=0;align=left;spacingLeft=6;overflow=hidden;fontSize=12;" vertex="1" parent="-I51igHoZUXPIICsRkif-182">
          <mxGeometry x="30" width="150" height="30" as="geometry">
            <mxRectangle width="150" height="30" as="alternateBounds" />
          </mxGeometry>
        </mxCell>
        <mxCell id="-I51igHoZUXPIICsRkif-185" value="" style="shape=tableRow;horizontal=0;startSize=0;swimlaneHead=0;swimlaneBody=0;fillColor=none;collapsible=0;dropTarget=0;points=[[0,0.5],[1,0.5]];portConstraint=eastwest;top=0;left=0;right=0;bottom=0;fontSize=12;" vertex="1" parent="-I51igHoZUXPIICsRkif-163">
          <mxGeometry y="240" width="180" height="30" as="geometry" />
        </mxCell>
        <mxCell id="-I51igHoZUXPIICsRkif-186" value="" style="shape=partialRectangle;connectable=0;fillColor=none;top=0;left=0;bottom=0;right=0;editable=1;overflow=hidden;fontSize=12;" vertex="1" parent="-I51igHoZUXPIICsRkif-185">
          <mxGeometry width="30" height="30" as="geometry">
            <mxRectangle width="30" height="30" as="alternateBounds" />
          </mxGeometry>
        </mxCell>
        <mxCell id="-I51igHoZUXPIICsRkif-187" value="created_date" style="shape=partialRectangle;connectable=0;fillColor=none;top=0;left=0;bottom=0;right=0;align=left;spacingLeft=6;overflow=hidden;fontSize=12;" vertex="1" parent="-I51igHoZUXPIICsRkif-185">
          <mxGeometry x="30" width="150" height="30" as="geometry">
            <mxRectangle width="150" height="30" as="alternateBounds" />
          </mxGeometry>
        </mxCell>
        <mxCell id="-I51igHoZUXPIICsRkif-188" value="" style="edgeStyle=orthogonalEdgeStyle;fontSize=12;html=1;endArrow=ERzeroToMany;startArrow=ERzeroToOne;rounded=0;exitX=0;exitY=0.5;exitDx=0;exitDy=0;" edge="1" parent="-I51igHoZUXPIICsRkif-163" source="-I51igHoZUXPIICsRkif-167">
          <mxGeometry width="100" height="100" relative="1" as="geometry">
            <mxPoint y="225" as="sourcePoint" />
            <mxPoint x="0.5" y="430" as="targetPoint" />
            <Array as="points">
              <mxPoint x="-74" y="75" />
              <mxPoint x="-74" y="430" />
            </Array>
          </mxGeometry>
        </mxCell>
        <mxCell id="-I51igHoZUXPIICsRkif-189" value="" style="edgeStyle=entityRelationEdgeStyle;fontSize=12;html=1;endArrow=ERzeroToMany;endFill=1;rounded=0;exitX=1;exitY=0.5;exitDx=0;exitDy=0;entryX=0;entryY=0.5;entryDx=0;entryDy=0;" edge="1" parent="1" source="-I51igHoZUXPIICsRkif-99" target="-I51igHoZUXPIICsRkif-164">
          <mxGeometry width="100" height="100" relative="1" as="geometry">
            <mxPoint x="1682" y="1740" as="sourcePoint" />
            <mxPoint x="1782" y="1640" as="targetPoint" />
          </mxGeometry>
        </mxCell>
      </root>
    </mxGraphModel>
  </diagram>
</mxfile>
